<svg width="17" height="16" viewBox="0 0 17 16" fill="none" xmlns="http://www.w3.org/2000/svg">
<path d="M8.07692 9.5C8.23667 9.5 8.39283 9.45601 8.52565 9.3736C8.65848 9.29119 8.762 9.17406 8.82313 9.03701C8.88427 8.89997 8.90026 8.74917 8.8691 8.60368C8.83793 8.4582 8.76101 8.32456 8.64805 8.21967C8.53509 8.11478 8.39117 8.04335 8.2345 8.01441C8.07782 7.98547 7.91542 8.00032 7.76783 8.05709C7.62025 8.11386 7.4941 8.20999 7.40535 8.33332C7.3166 8.45666 7.26923 8.60166 7.26923 8.75C7.26923 8.94891 7.35433 9.13968 7.5058 9.28033C7.65727 9.42098 7.86271 9.5 8.07692 9.5ZM12.1154 9.5C12.2751 9.5 12.4313 9.45601 12.5641 9.3736C12.6969 9.29119 12.8005 9.17406 12.8616 9.03701C12.9227 8.89997 12.9387 8.74917 12.9076 8.60368C12.8764 8.4582 12.7995 8.32456 12.6865 8.21967C12.5736 8.11478 12.4296 8.04335 12.273 8.01441C12.1163 7.98547 11.9539 8.00032 11.8063 8.05709C11.6587 8.11386 11.5326 8.20999 11.4438 8.33332C11.3551 8.45666 11.3077 8.60166 11.3077 8.75C11.3077 8.94891 11.3928 9.13968 11.5443 9.28033C11.6957 9.42098 11.9012 9.5 12.1154 9.5ZM8.07692 12.5C8.23667 12.5 8.39283 12.456 8.52565 12.3736C8.65848 12.2912 8.762 12.1741 8.82313 12.037C8.88427 11.9 8.90026 11.7492 8.8691 11.6037C8.83793 11.4582 8.76101 11.3246 8.64805 11.2197C8.53509 11.1148 8.39117 11.0434 8.2345 11.0144C8.07782 10.9855 7.91542 11.0003 7.76783 11.0571C7.62025 11.1139 7.4941 11.21 7.40535 11.3333C7.3166 11.4567 7.26923 11.6017 7.26923 11.75C7.26923 11.9489 7.35433 12.1397 7.5058 12.2803C7.65727 12.421 7.86271 12.5 8.07692 12.5ZM12.1154 12.5C12.2751 12.5 12.4313 12.456 12.5641 12.3736C12.6969 12.2912 12.8005 12.1741 12.8616 12.037C12.9227 11.9 12.9387 11.7492 12.9076 11.6037C12.8764 11.4582 12.7995 11.3246 12.6865 11.2197C12.5736 11.1148 12.4296 11.0434 12.273 11.0144C12.1163 10.9855 11.9539 11.0003 11.8063 11.0571C11.6587 11.1139 11.5326 11.21 11.4438 11.3333C11.3551 11.4567 11.3077 11.6017 11.3077 11.75C11.3077 11.9489 11.3928 12.1397 11.5443 12.2803C11.6957 12.421 11.9012 12.5 12.1154 12.5ZM4.03846 9.5C4.19821 9.5 4.35437 9.45601 4.48719 9.3736C4.62002 9.29119 4.72354 9.17406 4.78467 9.03701C4.8458 8.89997 4.8618 8.74917 4.83063 8.60368C4.79947 8.4582 4.72254 8.32456 4.60959 8.21967C4.49663 8.11478 4.35271 8.04335 4.19603 8.01441C4.03936 7.98547 3.87696 8.00032 3.72937 8.05709C3.58178 8.11386 3.45564 8.20999 3.36689 8.33332C3.27814 8.45666 3.23077 8.60166 3.23077 8.75C3.23077 8.94891 3.31587 9.13968 3.46734 9.28033C3.61881 9.42098 3.82425 9.5 4.03846 9.5ZM13.7308 2H12.9231V1.25C12.9231 1.05109 12.838 0.860322 12.6865 0.71967C12.535 0.579018 12.3296 0.5 12.1154 0.5C11.9012 0.5 11.6957 0.579018 11.5443 0.71967C11.3928 0.860322 11.3077 1.05109 11.3077 1.25V2H4.84615V1.25C4.84615 1.05109 4.76106 0.860322 4.60959 0.71967C4.45811 0.579018 4.25268 0.5 4.03846 0.5C3.82425 0.5 3.61881 0.579018 3.46734 0.71967C3.31587 0.860322 3.23077 1.05109 3.23077 1.25V2H2.42308C1.78044 2 1.16412 2.23705 0.709703 2.65901C0.255288 3.08097 0 3.65326 0 4.25V13.25C0 13.8467 0.255288 14.419 0.709703 14.841C1.16412 15.2629 1.78044 15.5 2.42308 15.5H13.7308C14.3734 15.5 14.9897 15.2629 15.4441 14.841C15.8986 14.419 16.1538 13.8467 16.1538 13.25V4.25C16.1538 3.65326 15.8986 3.08097 15.4441 2.65901C14.9897 2.23705 14.3734 2 13.7308 2ZM14.5385 13.25C14.5385 13.4489 14.4534 13.6397 14.3019 13.7803C14.1504 13.921 13.945 14 13.7308 14H2.42308C2.20886 14 2.00342 13.921 1.85195 13.7803C1.70048 13.6397 1.61538 13.4489 1.61538 13.25V6.5H14.5385V13.25ZM14.5385 5H1.61538V4.25C1.61538 4.05109 1.70048 3.86032 1.85195 3.71967C2.00342 3.57902 2.20886 3.5 2.42308 3.5H13.7308C13.945 3.5 14.1504 3.57902 14.3019 3.71967C14.4534 3.86032 14.5385 4.05109 14.5385 4.25V5ZM4.03846 12.5C4.19821 12.5 4.35437 12.456 4.48719 12.3736C4.62002 12.2912 4.72354 12.1741 4.78467 12.037C4.8458 11.9 4.8618 11.7492 4.83063 11.6037C4.79947 11.4582 4.72254 11.3246 4.60959 11.2197C4.49663 11.1148 4.35271 11.0434 4.19603 11.0144C4.03936 10.9855 3.87696 11.0003 3.72937 11.0571C3.58178 11.1139 3.45564 11.21 3.36689 11.3333C3.27814 11.4567 3.23077 11.6017 3.23077 11.75C3.23077 11.9489 3.31587 12.1397 3.46734 12.2803C3.61881 12.421 3.82425 12.5 4.03846 12.5Z" fill="black"/>
</svg>
